<mxfile host="app.diagrams.net" agent="Mozilla/5.0 (Windows NT 10.0; Win64; x64) AppleWebKit/537.36 (KHTML, like Gecko) Chrome/131.0.0.0 Safari/537.36 Edg/131.0.0.0" version="25.0.1">
  <diagram name="หน้า-1" id="sz-KXBdeQq_r28tWjKCl">
    <mxGraphModel dx="3207" dy="1067" grid="1" gridSize="10" guides="1" tooltips="1" connect="1" arrows="1" fold="1" page="1" pageScale="1" pageWidth="827" pageHeight="1169" math="0" shadow="0">
      <root>
        <mxCell id="0" />
        <mxCell id="1" parent="0" />
        <mxCell id="j8dzEzvAlhVweLs1yuZy-1" value="" style="edgeStyle=orthogonalEdgeStyle;rounded=0;orthogonalLoop=1;jettySize=auto;html=1;" edge="1" parent="1" source="j8dzEzvAlhVweLs1yuZy-2" target="j8dzEzvAlhVweLs1yuZy-3">
          <mxGeometry relative="1" as="geometry" />
        </mxCell>
        <mxCell id="j8dzEzvAlhVweLs1yuZy-2" value="Start" style="ellipse;whiteSpace=wrap;html=1;" vertex="1" parent="1">
          <mxGeometry x="-473" y="50" width="120" height="80" as="geometry" />
        </mxCell>
        <mxCell id="j8dzEzvAlhVweLs1yuZy-3" value="รับข้อมูลUser" style="shape=parallelogram;perimeter=parallelogramPerimeter;whiteSpace=wrap;html=1;fixedSize=1;" vertex="1" parent="1">
          <mxGeometry x="-508" y="175" width="190" height="60" as="geometry" />
        </mxCell>
        <mxCell id="j8dzEzvAlhVweLs1yuZy-4" value="END" style="ellipse;whiteSpace=wrap;html=1;" vertex="1" parent="1">
          <mxGeometry x="-473" y="650" width="120" height="80" as="geometry" />
        </mxCell>
        <mxCell id="j8dzEzvAlhVweLs1yuZy-5" style="edgeStyle=orthogonalEdgeStyle;rounded=0;orthogonalLoop=1;jettySize=auto;html=1;entryX=0;entryY=0.5;entryDx=0;entryDy=0;" edge="1" parent="1" source="j8dzEzvAlhVweLs1yuZy-6" target="j8dzEzvAlhVweLs1yuZy-14">
          <mxGeometry relative="1" as="geometry">
            <Array as="points">
              <mxPoint x="-582" y="578" />
            </Array>
          </mxGeometry>
        </mxCell>
        <mxCell id="j8dzEzvAlhVweLs1yuZy-6" value="Positive" style="shape=parallelogram;perimeter=parallelogramPerimeter;whiteSpace=wrap;html=1;fixedSize=1;" vertex="1" parent="1">
          <mxGeometry x="-676.5" y="465" width="190" height="60" as="geometry" />
        </mxCell>
        <mxCell id="j8dzEzvAlhVweLs1yuZy-7" value="" style="edgeStyle=orthogonalEdgeStyle;rounded=0;orthogonalLoop=1;jettySize=auto;html=1;" edge="1" parent="1" target="j8dzEzvAlhVweLs1yuZy-10">
          <mxGeometry relative="1" as="geometry">
            <mxPoint x="-413" y="234.99999999999977" as="sourcePoint" />
          </mxGeometry>
        </mxCell>
        <mxCell id="j8dzEzvAlhVweLs1yuZy-8" style="edgeStyle=orthogonalEdgeStyle;rounded=0;orthogonalLoop=1;jettySize=auto;html=1;exitX=1;exitY=0.5;exitDx=0;exitDy=0;entryX=0.5;entryY=0;entryDx=0;entryDy=0;" edge="1" parent="1" source="j8dzEzvAlhVweLs1yuZy-10" target="j8dzEzvAlhVweLs1yuZy-12">
          <mxGeometry relative="1" as="geometry" />
        </mxCell>
        <mxCell id="j8dzEzvAlhVweLs1yuZy-9" style="edgeStyle=orthogonalEdgeStyle;rounded=0;orthogonalLoop=1;jettySize=auto;html=1;entryX=0.5;entryY=0;entryDx=0;entryDy=0;" edge="1" parent="1" source="j8dzEzvAlhVweLs1yuZy-10" target="j8dzEzvAlhVweLs1yuZy-6">
          <mxGeometry relative="1" as="geometry">
            <Array as="points">
              <mxPoint x="-582" y="345" />
            </Array>
          </mxGeometry>
        </mxCell>
        <mxCell id="j8dzEzvAlhVweLs1yuZy-10" value="&lt;font style=&quot;font-size: 10px;&quot;&gt;ตัวเลข เป็นจำนวนเต็มหรือ&lt;/font&gt;&lt;div&gt;&lt;font size=&quot;3&quot;&gt;ไม่&lt;/font&gt;&lt;/div&gt;" style="rhombus;whiteSpace=wrap;html=1;" vertex="1" parent="1">
          <mxGeometry x="-486.5" y="305" width="147" height="80" as="geometry" />
        </mxCell>
        <mxCell id="j8dzEzvAlhVweLs1yuZy-11" style="edgeStyle=orthogonalEdgeStyle;rounded=0;orthogonalLoop=1;jettySize=auto;html=1;entryX=1;entryY=0.5;entryDx=0;entryDy=0;" edge="1" parent="1" source="j8dzEzvAlhVweLs1yuZy-12" target="j8dzEzvAlhVweLs1yuZy-14">
          <mxGeometry relative="1" as="geometry">
            <Array as="points">
              <mxPoint x="-244" y="578" />
            </Array>
          </mxGeometry>
        </mxCell>
        <mxCell id="j8dzEzvAlhVweLs1yuZy-12" value="Negative" style="shape=parallelogram;perimeter=parallelogramPerimeter;whiteSpace=wrap;html=1;fixedSize=1;" vertex="1" parent="1">
          <mxGeometry x="-339.5" y="465" width="190" height="60" as="geometry" />
        </mxCell>
        <mxCell id="j8dzEzvAlhVweLs1yuZy-13" style="edgeStyle=orthogonalEdgeStyle;rounded=0;orthogonalLoop=1;jettySize=auto;html=1;entryX=0.5;entryY=0;entryDx=0;entryDy=0;" edge="1" parent="1" source="j8dzEzvAlhVweLs1yuZy-14" target="j8dzEzvAlhVweLs1yuZy-4">
          <mxGeometry relative="1" as="geometry" />
        </mxCell>
        <mxCell id="j8dzEzvAlhVweLs1yuZy-14" value="" style="ellipse;whiteSpace=wrap;html=1;aspect=fixed;" vertex="1" parent="1">
          <mxGeometry x="-425.5" y="565" width="25" height="25" as="geometry" />
        </mxCell>
        <mxCell id="j8dzEzvAlhVweLs1yuZy-15" value="Y" style="text;html=1;align=center;verticalAlign=middle;whiteSpace=wrap;rounded=0;" vertex="1" parent="1">
          <mxGeometry x="-520" y="310" width="60" height="30" as="geometry" />
        </mxCell>
        <mxCell id="j8dzEzvAlhVweLs1yuZy-16" value="N" style="text;html=1;align=center;verticalAlign=middle;whiteSpace=wrap;rounded=0;" vertex="1" parent="1">
          <mxGeometry x="-370" y="310" width="60" height="30" as="geometry" />
        </mxCell>
      </root>
    </mxGraphModel>
  </diagram>
</mxfile>
